<mxfile host="app.diagrams.net" agent="Mozilla/5.0 (X11; Linux x86_64; rv:109.0) Gecko/20100101 Firefox/115.0" version="24.7.17">
  <diagram name="Page-1" id="bu9m9djkPS3ZjTSzZfVg">
    <mxGraphModel dx="986" dy="539" grid="1" gridSize="10" guides="1" tooltips="1" connect="1" arrows="1" fold="1" page="1" pageScale="1" pageWidth="850" pageHeight="1100" math="0" shadow="0">
      <root>
        <mxCell id="0" />
        <mxCell id="1" parent="0" />
        <mxCell id="Xj3CG6kcU_I7PFUBJBDR-25" style="edgeStyle=orthogonalEdgeStyle;rounded=0;orthogonalLoop=1;jettySize=auto;html=1;entryX=0.5;entryY=0;entryDx=0;entryDy=0;" edge="1" parent="1" source="Xj3CG6kcU_I7PFUBJBDR-20" target="Xj3CG6kcU_I7PFUBJBDR-22">
          <mxGeometry relative="1" as="geometry" />
        </mxCell>
        <mxCell id="Xj3CG6kcU_I7PFUBJBDR-20" value="&lt;font size=&quot;1&quot;&gt;&lt;b&gt;&lt;font style=&quot;font-size: 16px;&quot;&gt;http server&lt;/font&gt;&lt;/b&gt;&lt;/font&gt; (&lt;font style=&quot;font-size: 16px;&quot;&gt;ui&lt;/font&gt;)" style="rounded=1;whiteSpace=wrap;html=1;fillColor=#d5e8d4;strokeColor=#82b366;" vertex="1" parent="1">
          <mxGeometry width="200" height="60" as="geometry" />
        </mxCell>
        <mxCell id="Xj3CG6kcU_I7PFUBJBDR-26" style="edgeStyle=orthogonalEdgeStyle;rounded=0;orthogonalLoop=1;jettySize=auto;html=1;entryX=0.5;entryY=0;entryDx=0;entryDy=0;" edge="1" parent="1" source="Xj3CG6kcU_I7PFUBJBDR-22" target="Xj3CG6kcU_I7PFUBJBDR-23">
          <mxGeometry relative="1" as="geometry" />
        </mxCell>
        <mxCell id="Xj3CG6kcU_I7PFUBJBDR-22" value="&lt;font size=&quot;1&quot;&gt;&lt;b&gt;&lt;font style=&quot;font-size: 16px;&quot;&gt;use cases&lt;/font&gt;&lt;/b&gt;&lt;/font&gt; (&lt;font style=&quot;font-size: 16px;&quot;&gt;domain&lt;/font&gt;)" style="rounded=1;whiteSpace=wrap;html=1;fillColor=#dae8fc;strokeColor=#6c8ebf;" vertex="1" parent="1">
          <mxGeometry y="100" width="200" height="60" as="geometry" />
        </mxCell>
        <mxCell id="Xj3CG6kcU_I7PFUBJBDR-27" style="edgeStyle=orthogonalEdgeStyle;rounded=0;orthogonalLoop=1;jettySize=auto;html=1;entryX=0.5;entryY=0;entryDx=0;entryDy=0;" edge="1" parent="1" source="Xj3CG6kcU_I7PFUBJBDR-23" target="Xj3CG6kcU_I7PFUBJBDR-24">
          <mxGeometry relative="1" as="geometry" />
        </mxCell>
        <mxCell id="Xj3CG6kcU_I7PFUBJBDR-23" value="&lt;div&gt;&lt;font size=&quot;1&quot;&gt;&lt;b&gt;&lt;font style=&quot;font-size: 16px;&quot;&gt;models +&amp;nbsp;&lt;/font&gt;&lt;/b&gt;&lt;/font&gt;&lt;/div&gt;&lt;div style=&quot;font-size: 16px;&quot;&gt;&lt;font size=&quot;1&quot;&gt;&lt;b&gt;&lt;font style=&quot;font-size: 16px;&quot;&gt;repositories&lt;/font&gt;&lt;/b&gt;&lt;/font&gt; (data)&lt;/div&gt;" style="rounded=1;whiteSpace=wrap;html=1;fillColor=#f8cecc;strokeColor=#b85450;" vertex="1" parent="1">
          <mxGeometry y="200" width="200" height="60" as="geometry" />
        </mxCell>
        <mxCell id="Xj3CG6kcU_I7PFUBJBDR-24" value="&lt;div&gt;&lt;font size=&quot;1&quot;&gt;&lt;b&gt;&lt;font style=&quot;font-size: 16px;&quot;&gt;http client +&lt;/font&gt;&lt;/b&gt;&lt;/font&gt;&lt;/div&gt;&lt;div style=&quot;font-size: 13px;&quot;&gt;&lt;font size=&quot;1&quot;&gt;&lt;b&gt;&lt;font style=&quot;font-size: 16px;&quot;&gt;file-system&lt;/font&gt;&lt;/b&gt;&lt;/font&gt; (&lt;font style=&quot;font-size: 16px;&quot;&gt;networking&lt;/font&gt;)&lt;/div&gt;" style="rounded=1;whiteSpace=wrap;html=1;fillColor=#fff2cc;strokeColor=#d6b656;" vertex="1" parent="1">
          <mxGeometry y="300" width="200" height="60" as="geometry" />
        </mxCell>
      </root>
    </mxGraphModel>
  </diagram>
</mxfile>
